<?xml version="1.0" encoding="UTF-8" standalone="no"?>
<!-- Created with Inkscape (http://www.inkscape.org/) -->

<svg
   width="210mm"
   height="297mm"
   viewBox="0 0 210 297"
   version="1.1"
   id="svg1"
   xml:space="preserve"
   xmlns="http://www.w3.org/2000/svg"
   xmlns:svg="http://www.w3.org/2000/svg"><defs
     id="defs1" /><g
     id="layer1"><g
       style="fill:#ffffff;stroke:#ffffff"
       id="g1"
       transform="matrix(0.01498761,0,0,0.01286413,39.227885,7.4683152)"><g
         id="SVGRepo_bgCarrier"
         stroke-width="0">&#10;&#10;<rect
   x="-120"
   y="-120"
   width="1440"
   height="1440"
   rx="720"
   fill="#f50000"
   strokewidth="0"
   id="rect1" />&#10;&#10;</g><g
         id="SVGRepo_tracerCarrier"
         stroke-linecap="round"
         stroke-linejoin="round" /><g
         id="SVGRepo_iconCarrier">  <path
   id="path8046"
   d="M 381.64,1200 C 135.779,1061.434 71.049,930.278 108.057,751.148 135.378,618.877 224.839,511.262 233.417,379.245 271.632,448.789 287.6,498.936 291.87,571.609 413.413,422.695 493.731,216.546 498.487,0 c 0,0 316.575,186.01 337.348,466.98 27.253,-57.913 40.972,-149.892 13.719,-209.504 81.757,59.615 560.293,588.838 -64.818,942.524 117.527,-228.838 30.32,-537.611 -173.739,-680.218 13.628,61.319 -10.265,290.021 -100.542,390.515 25.014,-167.916 -23.8,-238.918 -23.8,-238.918 0,0 -16.754,94.054 -81.758,189.065 -59.36,86.762 -100.49,178.847 -23.257,339.556 z" /> </g></g><text
       xml:space="preserve"
       style="font-style:normal;font-variant:normal;font-weight:bold;font-stretch:normal;font-size:16.0066px;font-family:Raleway;-inkscape-font-specification:'Raleway Bold';fill:#000000;stroke-width:0.166733"
       x="68.259003"
       y="19.060831"
       id="text1"
       transform="scale(0.87228333,1.1464165)"><tspan
         id="tspan1"
         style="font-style:normal;font-variant:normal;font-weight:bold;font-stretch:normal;font-family:Raleway;-inkscape-font-specification:'Raleway Bold';fill:#000000;stroke-width:0.166733"
         x="68.259003"
         y="19.060831">SGIB</tspan></text></g></svg>
