<?xml version="1.0" encoding="UTF-8" standalone="no"?>
<!-- Created with Inkscape (http://www.inkscape.org/) -->

<svg
   width="34.15873mm"
   height="39.53347mm"
   viewBox="0 0 34.15873 39.53347"
   version="1.1"
   id="svg1"
   xml:space="preserve"
   sodipodi:docname="logo_vertical.svg"
   xmlns:inkscape="http://www.inkscape.org/namespaces/inkscape"
   xmlns:sodipodi="http://sodipodi.sourceforge.net/DTD/sodipodi-0.dtd"
   xmlns="http://www.w3.org/2000/svg"
   xmlns:svg="http://www.w3.org/2000/svg"><sodipodi:namedview
     id="namedview1"
     pagecolor="#ffffff"
     bordercolor="#000000"
     borderopacity="0.25"
     inkscape:showpageshadow="2"
     inkscape:pageopacity="0.0"
     inkscape:pagecheckerboard="0"
     inkscape:deskcolor="#d1d1d1"
     inkscape:document-units="mm" /><defs
     id="defs1" /><g
     id="layer1"
     transform="translate(-37.429372,-5.924619)"><g
       style="fill:#ffffff;stroke:#ffffff"
       id="g1"
       transform="matrix(0.02372134,0,0,0.02036045,40.275933,8.3678731)"><g
         id="SVGRepo_bgCarrier"
         stroke-width="0">&#10;&#10;<rect
   x="-120"
   y="-120"
   width="1440"
   height="1440"
   rx="720"
   fill="#f50000"
   strokewidth="0"
   id="rect1" />&#10;&#10;</g><g
         id="SVGRepo_tracerCarrier"
         stroke-linecap="round"
         stroke-linejoin="round" /><g
         id="SVGRepo_iconCarrier">  <path
   id="path8046"
   d="M 381.64,1200 C 135.779,1061.434 71.049,930.278 108.057,751.148 135.378,618.877 224.839,511.262 233.417,379.245 271.632,448.789 287.6,498.936 291.87,571.609 413.413,422.695 493.731,216.546 498.487,0 c 0,0 316.575,186.01 337.348,466.98 27.253,-57.913 40.972,-149.892 13.719,-209.504 81.757,59.615 560.293,588.838 -64.818,942.524 117.527,-228.838 30.32,-537.611 -173.739,-680.218 13.628,61.319 -10.265,290.021 -100.542,390.515 25.014,-167.916 -23.8,-238.918 -23.8,-238.918 0,0 -16.754,94.054 -81.758,189.065 -59.36,86.762 -100.49,178.847 -23.257,339.556 z" /> </g></g><text
       xml:space="preserve"
       style="font-style:normal;font-variant:normal;font-weight:bold;font-stretch:normal;font-size:14.0579px;font-family:Raleway;-inkscape-font-specification:'Raleway Bold';fill:#000000;stroke-width:0.146435"
       x="37.499695"
       y="46.147102"
       id="text1"
       transform="scale(1.0176311,0.98267442)"><tspan
         id="tspan1"
         style="font-style:normal;font-variant:normal;font-weight:bold;font-stretch:normal;font-family:Raleway;-inkscape-font-specification:'Raleway Bold';fill:#000000;stroke-width:0.146435"
         x="37.499695"
         y="46.147102">SGIB</tspan></text></g></svg>
